<?xml version="1.0"?>
<svg xmlns:rdf="http://www.w3.org/1999/02/22-rdf-syntax-ns#" xmlns="http://www.w3.org/2000/svg" xmlns:cc="http://web.resource.org/cc/" xmlns:dc="http://purl.org/dc/elements/1.1/" xmlns:sodipodi="http://inkscape.sourceforge.net/DTD/sodipodi-0.dtd" id="svg4396" xml:space="preserve" viewBox="-0.916 -0.7 512 511" sodipodi:version="0.32" version="1.0" sodipodi:docname="Adult_and_child.svg" sodipodi:docbase="C:\foo\wikipedia\transfer"><sodipodi:namedview id="base" bordercolor="#666666" borderopacity="1.0" pagecolor="#ffffff"/>
	<path id="path4406" d="m3.1291 331.21c0.5844-4.1 1.461-8.19 2.6298-12.13 1.1687-7.31 2.1914-13.73 3.068-20.16 0.5844-6.28 1.3151-14.61 2.0451-23.09 0.439-5.69 0.877-10.95 1.461-16.21 4.091-19.58 8.62-39.74 13.587-59.76 8.474-30.97 15.633-58 22.499-85.32 4.529-14.02 9.935-30.677 15.486-47.478 1.023-4.821 4.383-11.98 9.058-18.262 4.676-6.867 10.812-12.71 17.97-17.093 15.637-7.451 31.407-13.587 47.627-18.409 3.07-0.876 6.28-2.045 9.21-3.5059 4.38-2.6298 8.32-5.8439 11.54-9.7885 1.17-1.3149 1.9-2.922 2.48-4.529 0-0.4383 0.15-0.8766 0.15-1.3149 0.14-0.2922 0.14-0.5844 0.14-0.8766 1.17-5.4051 1.61-10.957 1.61-16.509v-16.07c0-1.023-0.29-2.046-0.88-2.922-7.45-13.441-12.12-28.197-13.73-43.537-0.88-12.711 0.15-25.425 3.21-37.835 1.17-4.24 2.34-8.48 3.66-12.71 1.6-4.1 3.94-8.04 7.01-11.4 4.67-5.84 10.81-10.52 17.68-13.73 12.27-6.58 26.59-9.06 40.47-6.87 8.03 1.17 15.92 4.38 22.64 9.35 1.75 1.46 3.51 3.07 5.11 4.82 4.24 4.68 7.75 9.79 10.67 15.34 0.29 0.73 0.58 1.46 0.88 2.34 0.73 2.19 1.16 4.67 1.16 7.16v0.73c-0.14 1.31-0.43 2.77-0.58 4.24-1.02 5.11-2.34 10.22-3.94 15.04 0.29 3.8 0.43 7.45 0.43 10.96 0 6.136-0.43 12.272-1.31 18.409-0.59 4.529-1.46 9.204-2.34 13.879-0.58 3.068-1.61 5.99-2.77 8.619-0.3 3.215-1.03 6.429-2.2 9.497-0.29 1.169-0.87 2.337-1.6 3.36-2.63 3.068-5.55 5.844-8.91 8.181-2.2 1.315-4.39 2.63-6.58 3.945-1.46 0.731-2.92 1.315-4.38 1.607-1.17 8.62-1.9 17.678-1.9 26.59 0 2.7756 0.14 5.4053 0.14 8.1812 0.59 3.3602 2.2 6.7208 4.83 9.3498 11.25 8.328 23.23 15.341 35.79 21.038 4.82 1.754 9.35 4.822 12.86 8.766 4.38 5.114 7.89 10.957 10.52 17.094 4.23 13.587 7.3 27.466 8.76 41.634 4.53 31.71 8.18 60.34 11.54 88.98 0.59 6.13 1.46 15.92 2.05 25.56 0.44 3.51 1.31 8.33 2.63 13.01 3.07 12.41 5.26 24.98 6.57 37.54 3.36 7.02 4.97 10.52 6.58 14.03 2.04 5.26 5.11 12.85 8.03 20.45 0.44 1.75 0.73 3.65 0.88 5.41v0.58c0 2.49-0.15 4.97-0.59 7.45-0.14 0.44-0.14 0.73-0.29 1.17 0.44-1.46-0.29 1.17-1.02 3.95-0.29 13.58 1.17 20.16 3.21 26.88 0.59 2.19 2.05 4.23 4.09 5.4 11.98 5.55 24.11 9.79 36.67 13.01h3.51c3.95 0 8.18-0.44 12.13-1.47 1.75-2.48 3.06-5.4 4.09-8.32v-0.44c0-2.05-0.88-3.8-2.19-5.26-1.47-1.02-3.22-2.05-4.83-3.07-5.25-3.5-8.76-8.33-10.37-14.02-1.31-4.09-1.31-8.62 0-12.71 0.88-3.22 1.61-5.99 2.19-8.77 0.15-0.44 0.3-1.02 0.3-1.75 0-0.59-0.15-1.32-0.3-1.9-0.14-0.59-0.58-1.17-0.87-1.61 0-0.15-0.15-0.15-0.15-0.29-1.02-1.61-1.75-3.36-2.04-5.12-1.61-7.59-0.59-15.48 3.06-22.49 2.49-6.29 7.16-11.55 13.15-14.76 12.27-7.16 27.03-8.77 40.62-4.82 6.28 1.31 12.42 4.09 17.53 8.18 0.88 0.88 1.75 1.75 2.48 2.78 4.39 6.42 6.72 14.02 7.01 21.76-0.43 9.35-2.19 18.85-5.11 28.06-4.97 12.12-11.1 23.52-18.55 34.04-0.73 0.87-1.46 1.9-2.19 2.77-0.88 1.02-1.17 2.19-1.17 3.36v1.02c0.29 2.63 0.73 5.26 1.17 7.89 0.14 0.73 0.58 1.61 1.16 2.2 0.3 0.14 0.44 0.29 0.44 0.43 0.59 0.44 1.17 1.03 1.76 1.61 7.3 8.18 13.44 17.53 17.97 27.76 3.5 6.57 6.28 13.59 8.32 20.89 13.15 39.59 23.23 69.98 33.02 100.52-2.77-9.35-2.04-7.6-1.31-5.85 1.17 2.34 2.04 4.82 2.92 7.45 0.44 3.22 0.87 6.28 1.31 9.21v-0.15c0 0.59-0.14 1.17-0.44 1.61-0.87 2.04-2.48 3.65-4.38 4.67-2.77 0.88-5.7 0.73-8.47-0.14-1.75-0.73-3.22-1.9-4.38-3.22-0.73-0.73-1.32-1.46-1.61-2.33-0.88-2.78-1.61-5.41-2.05-8.19-0.14-2.92-0.14-5.99 0.15-8.91l-11.83-21.62-18.27-33.46c-0.14 2.78-0.14 5.7-0.14 8.62 0 22.06 2.77 44.12 8.32 65.6-5.69 4.97-12.12 9.35-18.84 13l3.8 42.66 3.36 36.67c0.87-0.58 2.04-1.02 3.06-1.17 3.95-0.87 8.04 1.32 9.65 5.12 0.14 0.58 0.29 1.17 0.29 1.75v0.59c0 0.14-0.15 0.29-0.15 0.43-3.8 6.29-8.03 12.42-12.85 18.27-1.32 1.75-2.93 3.06-4.68 3.79-2.04 1.17-4.09 1.9-6.28 2.34-1.02 0.15-2.05-0.14-2.78-0.58-0.43-0.29-0.58-0.59-0.73-0.88l-30.38-97.74c-4.68 0.59-9.65 0.73-14.47 0.59l-7.45 104.31c-0.58 4.09-2.78 7.74-5.99 10.37-0.15 0-0.29 0.15-0.44 0.3-1.17 1.02-2.63 1.75-4.23 2.19-2.78 0.29-5.56 0.29-8.33-0.15-1.61-0.29-3.22-0.88-4.68-1.46-4.96-3.51-10.66-7.45-16.36-11.4-3.36-2.77-3.94-5.69-2.92-8.18 1.17-3.36 3.65-6.13 6.86-7.45 2.49-0.44 5.12-0.14 7.6 0.73 1.32 0.59 2.63 1.61 3.51 2.92h0.14c0.44 0 0.73-0.29 0.73-0.58v-0.15l-13.44-99.49c-9.64-3.21-18.99-8.03-27.46-13.88 11.54-27.76 21.47-54.49 30.24-81.67 1.61-5.4 2.92-11.68 3.94-17.97 1.17-5.84 2.05-11.25 2.78-16.8v-2.63c0-5.4-1.17-10.81-3.51-15.78-0.14-0.14-0.29-0.43-0.58-0.73-3.36-4.96-7.16-9.64-11.4-14.02-3.65-4.09-7.59-8.18-11.54-12.27-2.92-3.07-5.4-6.43-7.45-9.94-1.31-2.77-2.63-5.84-3.8-8.91-0.58-2.34-0.87-4.67-0.87-7.01 0.14-9.5 0.58-18.26 1.16-27.03-2.19-6.28-4.67-13.59-7.3-20.89v-6.28c0-1.47 0-3.22-0.15-4.83-2.77-4.67-5.99-9.2-9.35-13.58-3.36-4.53-6.72-9.35-9.93-14.17-5.7-10.08-10.52-20.46-14.46-30.98-2.05-5.26-3.66-10.66-4.68-16.07-0.29-6.28-1.17-12.71-2.63-18.99-2.78-11.4-6.43-23.23-10.52-34.77l-1.31 167.72-16.8 7.89 5.55 101.83-18.26 121.55c4.82-4.38 12.27-3.94 16.65 0.88 1.75 2.77 2.92 6.13 2.92 9.49 0 2.05-0.44 4.09-1.17 5.99-2.04 5.55-5.26 10.81-9.35 15.05-7.01 8.47-14.31 16.66-22.2 24.25-4.09 4.24-8.62 7.31-13.59 9.5-2.78 0.88-5.55 1.46-8.33 1.46-1.75-0.15-3.07-1.17-3.94-2.48-1.76-2.93-3.22-5.85-4.39-9.06-0.87-4.09-1.31-8.33-1.16-12.57v-2.63c0-4.23 0-8.47-0.15-12.71 1.31-16.36 2.34-28.05 3.51-39.73 0.58-15.34 1.02-33.17 1.02-50.85-0.44-13.88-1.32-29.07-2.78-44.41-1.6-14.17-5.7-51.13-9.64-88.24l-11.69-21.33c-4.09 59.61-12.27 173.27-21.04 286.93-2.92 22.79-5.99 31.41-10.22 39.59-2.19 4.53-6.87 7.46-11.98 7.46-7.01 0.87-14.03-2.2-18.41-7.75-11.834-15.78-20.892-33.45-26.882-52.3-1.169-3.36-0.877-6.87 0.584-9.94 1.607-3.06 3.945-5.69 6.721-7.88 2.045-1.47 4.675-2.2 7.158-1.76 2.484 0.73 4.822 1.61 7.305 2.78l-10.227-270.13-11.103-5.26 4.821-58.59c7.89-72.76 11.98-110.3 16.363-147.85-5.99 33.75-9.058 41.64-12.564 49.38-2.922 7.6-5.99 14.47-9.058 21.33-6.575 15.34-12.857 31.7-18.847 48.07-3.068 10.08-6.574 21.47-10.08 33.02-4.529 15.48-7.744 26.88-10.665 38.27 0.584 5.85 1.022 11.11 1.022 16.37v1.75c-0.292 6.87-1.461 13.73-3.36 20.31-0.73 2.48-1.753 4.67-3.068 6.72-1.899 2.92-4.383 5.55-7.159 7.74-0.292 0.29-0.584 0.58-1.022 0.58-2.63 0.88-5.552 0.73-8.036-0.43-6.7202-2.34-11.249-8.77-11.103-16.07 0.1459-5.26 0.8764-10.38 1.8991-15.34z"/>
<metadata><rdf:RDF><cc:Work><dc:format>image/svg+xml</dc:format><dc:type rdf:resource="http://purl.org/dc/dcmitype/StillImage"/><cc:license rdf:resource="http://creativecommons.org/licenses/publicdomain/"/><dc:publisher><cc:Agent rdf:about="http://openclipart.org/"><dc:title>Openclipart</dc:title></cc:Agent></dc:publisher></cc:Work><cc:License rdf:about="http://creativecommons.org/licenses/publicdomain/"><cc:permits rdf:resource="http://creativecommons.org/ns#Reproduction"/><cc:permits rdf:resource="http://creativecommons.org/ns#Distribution"/><cc:permits rdf:resource="http://creativecommons.org/ns#DerivativeWorks"/></cc:License></rdf:RDF></metadata></svg>
